<svg xmlns="http://www.w3.org/2000/svg" xmlns:xlink="http://www.w3.org/1999/xlink" version="1.1" x="0px" y="0px" viewBox="0 0 100 100" enable-background="new 0 0 100 100" xml:space="preserve"><g display="none"><rect x="-613.154" y="-724.111" display="inline"  stroke="#000000" stroke-width="2" stroke-miterlimit="10" width="1220.154" height="969.87"></rect></g><g><path d="M62.578,56.6v-26.71c0-4.557,0-10.228-1.701-14.941C58.703,8.925,54.221,5.87,47.554,5.87H28.438   c-7.871,0-14.619,5.944-15.364,13.532c-0.413,4.213,0.981,8.429,3.825,11.566c2.853,3.146,6.908,4.95,11.127,4.95h3.404v20.593   C15.373,59.268,4.229,66.274,4.229,74.691c0,10.9,18.68,19.438,42.526,19.438s42.526-8.538,42.526-19.438   C89.281,66.361,78.366,59.415,62.578,56.6z M28.025,32.288c-3.195,0-6.271-1.37-8.436-3.759c-2.189-2.415-3.22-5.53-2.901-8.772   c0.563-5.751,5.725-10.256,11.749-10.256h19.116c5.114,0,8.263,2.123,9.907,6.681c1.486,4.117,1.486,9.436,1.486,13.709v44.565   H35.061V32.288H28.025z M46.755,90.499c-23.266,0-38.896-8.174-38.896-15.808c0-5.801,9.03-11.91,23.57-14.511v17.906h31.148   v-17.82c14.251,2.65,23.072,8.689,23.072,14.424C85.65,82.325,70.021,90.499,46.755,90.499z"></path><path d="M40.537,21.679c1.691,0,3.067-1.376,3.067-3.067s-1.376-3.068-3.067-3.068s-3.067,1.377-3.067,3.068   S38.846,21.679,40.537,21.679z"></path><path d="M30.655,15.543c-1.691,0-3.067,1.377-3.067,3.068s1.376,3.067,3.067,3.067s3.067-1.376,3.067-3.067   S32.347,15.543,30.655,15.543z"></path><path d="M94.114,39.922H67.098c-0.915,0-1.657,0.742-1.657,1.657s0.742,1.657,1.657,1.657h27.017c0.915,0,1.657-0.742,1.657-1.657   S95.029,39.922,94.114,39.922z"></path><path d="M67.098,33.975h19.297c0.915,0,1.657-0.742,1.657-1.657s-0.742-1.657-1.657-1.657H67.098c-0.915,0-1.657,0.742-1.657,1.657   S66.183,33.975,67.098,33.975z"></path><path d="M67.098,24.712h11.578c0.915,0,1.657-0.742,1.657-1.657s-0.742-1.657-1.657-1.657H67.098c-0.915,0-1.657,0.742-1.657,1.657   S66.183,24.712,67.098,24.712z"></path></g></svg>